<svg width="240" height="452" viewBox="0 0 240 452" fill="none" xmlns="http://www.w3.org/2000/svg">
<path d="M211.615 396.412L211.615 396.411C229.839 360.383 238.676 301.983 238.676 225.796C238.676 149.607 229.839 93.774 211.615 57.7475L211.615 57.7471C202.006 38.7932 189.55 24.4743 174.175 14.8963C158.799 5.31798 140.536 0.5 119.343 0.5C98.3941 0.5 80.2531 5.31846 64.9395 14.8968C49.6266 24.4747 37.1706 38.7932 27.5617 57.7471L27.5615 57.7475C9.33774 93.774 0.5 149.607 0.5 225.796C0.5 301.965 7.0858 360.376 25.314 396.411L25.3142 396.412C34.9302 415.379 47.9573 429.058 63.8357 437.991C79.7106 446.922 98.4072 451.093 119.343 451.093C140.523 451.093 158.784 446.922 174.162 437.987C189.542 429.052 202.003 415.371 211.615 396.412ZM159.149 331.496L159.144 331.508L159.139 331.52C154.618 343.854 149.483 352.061 143.087 357.191C136.704 362.31 129.008 364.409 119.262 364.409C109.524 364.409 101.828 362.15 95.5245 356.951C89.2113 351.743 84.2393 343.541 80.0456 331.544C74.6662 311.794 71.7199 276.561 71.7199 225.796C71.7199 175.002 72.9885 147.281 78.3689 127.54C81.7873 115.223 87.1976 106.198 94.152 100.254C101.101 94.3139 109.627 91.4185 119.343 91.4185C129.085 91.4185 137.284 93.6766 143.958 98.9626C150.635 104.252 155.841 112.617 159.505 124.938C164.887 144.684 167.456 175.022 167.456 225.796C167.456 251.192 167.456 272.759 166.414 290.422C165.371 308.095 163.287 321.8 159.149 331.496Z" stroke="white"/>
</svg>
